<svg width="50" height="39" viewBox="0 0 50 39" fill="none" xmlns="http://www.w3.org/2000/svg">
<path fill-rule="evenodd" clip-rule="evenodd" d="M6.39532 3.48835C4.78985 3.48835 3.48835 4.78985 3.48835 6.39532V31.9766C3.48835 33.5821 4.78985 34.8836 6.39532 34.8836H43.6044C45.2099 34.8836 46.5114 33.5821 46.5114 31.9766V6.39532C46.5114 4.78985 45.2099 3.48835 43.6044 3.48835H6.39532ZM0 6.39532C0 2.86328 2.86328 0 6.39532 0H43.6044C47.1365 0 49.9997 2.86328 49.9997 6.39532V31.9766C49.9997 35.5086 47.1365 38.3719 43.6044 38.3719H6.39532C2.86328 38.3719 0 35.5086 0 31.9766V6.39532Z" fill="white"/>
<path fill-rule="evenodd" clip-rule="evenodd" d="M1.34314 9.24118C1.76785 8.37658 2.81305 8.01998 3.67765 8.4447L24.7452 18.7937C24.9069 18.8731 25.0962 18.8731 25.2579 18.7937L46.3254 8.4447C47.19 8.01998 48.2352 8.37658 48.66 9.24118C49.0847 10.1058 48.7281 11.151 47.8635 11.5757L26.7959 21.9247C25.6642 22.4806 24.3388 22.4806 23.2072 21.9247L2.13962 11.5757C1.27502 11.151 0.918422 10.1058 1.34314 9.24118Z" fill="white"/>
<path fill-rule="evenodd" clip-rule="evenodd" d="M33.4136 19.4821C33.2394 19.3556 33.0096 19.3358 32.8162 19.4305L26.7908 22.383C25.6611 22.9365 24.3389 22.9365 23.2093 22.383L17.1838 19.4305C16.9904 19.3358 16.7606 19.3556 16.5864 19.4821L2.76893 29.5125C1.98939 30.0784 0.898707 29.9052 0.332819 29.1257C-0.23307 28.3461 -0.0598708 27.2555 0.71967 26.6896L14.5371 16.6591C15.7566 15.7739 17.3655 15.6349 18.7187 16.298L24.7442 19.2505C24.9056 19.3296 25.0944 19.3296 25.2558 19.2505L31.2813 16.298C32.6345 15.6349 34.2434 15.7739 35.4629 16.6591L49.2803 26.6896C50.0599 27.2555 50.2331 28.3461 49.6672 29.1257C49.1013 29.9052 48.0106 30.0784 47.2311 29.5125L33.4136 19.4821Z" fill="white"/>
</svg>
