<svg width="30" height="42" viewBox="0 0 30 42" fill="none" xmlns="http://www.w3.org/2000/svg">
<path d="M21.5154 8.67568C21.5154 12.3626 18.5266 15.3514 14.8397 15.3514C11.1529 15.3514 8.16406 12.3626 8.16406 8.67568C8.16406 4.98879 11.1529 2 14.8397 2C18.5266 2 21.5154 4.98879 21.5154 8.67568Z" stroke="white" stroke-width="3"/>
<path d="M27.6757 31.2688C27.6757 33.4781 26.4246 35.6238 24.1094 37.2773C21.7974 38.929 18.5242 39.9985 14.8378 39.9985C11.1514 39.9985 7.87831 38.929 5.56621 37.2773C3.25114 35.6238 2 33.4781 2 31.2688C2 29.0595 3.25114 26.9138 5.56621 25.2603C7.87831 23.6086 11.1514 22.5391 14.8378 22.5391C18.5242 22.5391 21.7974 23.6086 24.1094 25.2603C26.4246 26.9138 27.6757 29.0595 27.6757 31.2688Z" stroke="white" stroke-width="3"/>
</svg>
