<svg width="437" height="108" viewBox="0 0 437 108" fill="none" xmlns="http://www.w3.org/2000/svg">
<path d="M0.445469 1.8H34.5255C39.2455 1.8 43.4255 2.8 47.0655 4.79999C50.7055 6.75999 53.5655 9.58 55.6455 13.26C57.7655 16.94 58.8255 21.32 58.8255 26.4C58.8255 31.44 57.9655 35.54 56.2455 38.7C54.5255 41.86 52.4655 44.22 50.0655 45.78C47.6655 47.34 45.4655 48.32 43.4655 48.72L62.5455 81H39.0855L22.4055 50.34H21.3855V81H0.445469V1.8ZM21.3855 36.06H27.0255C29.6255 36.06 31.9855 35.44 34.1055 34.2C36.2655 32.96 37.3455 30.58 37.3455 27.06C37.3455 23.58 36.2855 21.22 34.1655 19.98C32.0855 18.74 29.7655 18.12 27.2055 18.12H21.3855V36.06ZM91.4617 60.66C91.6217 61.98 92.1417 63.14 93.0217 64.14C93.9417 65.1 95.1417 65.86 96.6217 66.42C98.1417 66.94 99.9217 67.2 101.962 67.2C103.962 67.2 105.842 67.06 107.602 66.78C109.362 66.46 110.922 66.04 112.282 65.52C113.682 65 114.782 64.42 115.582 63.78L123.442 76.98C122.562 77.74 121.242 78.54 119.482 79.38C117.722 80.22 115.302 80.94 112.222 81.54C109.182 82.14 105.282 82.44 100.522 82.44C95.0017 82.44 90.0417 81.46 85.6417 79.5C81.2417 77.54 77.7617 74.6 75.2017 70.68C72.6417 66.72 71.3617 61.78 71.3617 55.86C71.3617 51.06 72.4417 46.74 74.6017 42.9C76.7617 39.02 79.8817 35.96 83.9617 33.72C88.0417 31.44 92.9817 30.3 98.7817 30.3C104.342 30.3 109.162 31.28 113.242 33.24C117.322 35.16 120.462 38.08 122.662 42C124.862 45.92 125.962 50.88 125.962 56.88C125.962 57.2 125.942 57.84 125.902 58.8C125.902 59.76 125.862 60.38 125.782 60.66H91.4617ZM105.982 51.06C105.942 49.74 105.642 48.56 105.082 47.52C104.562 46.48 103.802 45.66 102.802 45.06C101.802 44.46 100.582 44.16 99.1417 44.16C97.7417 44.16 96.5017 44.44 95.4217 45C94.3417 45.56 93.5017 46.36 92.9017 47.4C92.3017 48.4 91.9617 49.62 91.8817 51.06H105.982ZM161.402 107.4C158.122 107.4 154.742 107.12 151.262 106.56C147.782 106.04 144.462 105.06 141.302 103.62C138.182 102.18 135.502 100.1 133.262 97.38L145.442 84.48C146.442 85.6 147.622 86.64 148.982 87.6C150.342 88.6 151.962 89.4 153.842 90C155.722 90.64 157.922 90.96 160.442 90.96C162.722 90.96 164.762 90.62 166.562 89.94C168.362 89.26 169.762 88.18 170.762 86.7C171.802 85.26 172.322 83.4 172.322 81.12V80.04H193.202V82.32C193.202 87.84 191.782 92.46 188.942 96.18C186.142 99.9 182.342 102.7 177.542 104.58C172.742 106.46 167.362 107.4 161.402 107.4ZM172.322 81V73.62C171.922 74.38 171.022 75.48 169.622 76.92C168.222 78.32 166.362 79.6 164.042 80.76C161.762 81.88 159.082 82.44 156.002 82.44C151.122 82.44 146.902 81.24 143.342 78.84C139.782 76.44 137.022 73.26 135.062 69.3C133.142 65.34 132.182 61.04 132.182 56.4C132.182 51.76 133.142 47.46 135.062 43.5C137.022 39.54 139.782 36.36 143.342 33.96C146.902 31.52 151.122 30.3 156.002 30.3C158.922 30.3 161.462 30.74 163.622 31.62C165.822 32.5 167.622 33.54 169.022 34.74C170.462 35.94 171.482 37.08 172.082 38.16V31.74H193.202V81H172.322ZM153.002 56.4C153.002 58.16 153.422 59.78 154.262 61.26C155.102 62.7 156.242 63.84 157.682 64.68C159.122 65.52 160.762 65.94 162.602 65.94C164.442 65.94 166.062 65.52 167.462 64.68C168.902 63.84 170.022 62.7 170.822 61.26C171.662 59.78 172.082 58.16 172.082 56.4C172.082 54.64 171.662 53.04 170.822 51.6C170.022 50.12 168.902 48.96 167.462 48.12C166.062 47.24 164.442 46.8 162.602 46.8C160.762 46.8 159.122 47.24 157.682 48.12C156.242 48.96 155.102 50.12 154.262 51.6C153.422 53.04 153.002 54.64 153.002 56.4ZM204.32 81V31.74H225.5V81H204.32ZM215.18 24.18C211.94 24.18 209.18 23.04 206.9 20.76C204.66 18.48 203.54 15.76 203.54 12.6C203.54 9.43999 204.66 6.69999 206.9 4.38C209.18 2.06 211.94 0.899998 215.18 0.899998C217.3 0.899998 219.24 1.44 221 2.51999C222.76 3.56 224.18 4.96 225.26 6.72C226.34 8.48 226.88 10.44 226.88 12.6C226.88 15.76 225.72 18.48 223.4 20.76C221.12 23.04 218.38 24.18 215.18 24.18ZM260.35 30.3C263.79 30.3 266.93 30.58 269.77 31.14C272.65 31.7 275.03 32.32 276.91 33C278.83 33.64 280.03 34.14 280.51 34.5L273.85 46.86C273.13 46.34 271.73 45.66 269.65 44.82C267.61 43.94 265.35 43.5 262.87 43.5C261.23 43.5 259.87 43.7 258.79 44.1C257.75 44.46 257.23 45.1 257.23 46.02C257.23 46.9 257.85 47.64 259.09 48.24C260.33 48.8 262.21 49.3 264.73 49.74C267.01 50.18 269.41 50.92 271.93 51.96C274.45 52.96 276.57 54.5 278.29 56.58C280.05 58.62 280.93 61.36 280.93 64.8C280.93 68.48 280.13 71.48 278.53 73.8C276.93 76.08 274.83 77.86 272.23 79.14C269.67 80.38 266.89 81.24 263.89 81.72C260.93 82.2 258.09 82.44 255.37 82.44C251.37 82.44 247.91 82.08 244.99 81.36C242.07 80.68 239.73 79.9 237.97 79.02C236.25 78.14 235.07 77.46 234.43 76.98L240.97 63.24C242.01 64.08 243.69 65.04 246.01 66.12C248.37 67.2 250.81 67.74 253.33 67.74C255.57 67.74 257.25 67.5 258.37 67.02C259.53 66.5 260.11 65.8 260.11 64.92C260.11 64.24 259.83 63.68 259.27 63.24C258.71 62.8 257.89 62.4 256.81 62.04C255.73 61.68 254.37 61.34 252.73 61.02C251.25 60.74 249.61 60.28 247.81 59.64C246.01 58.96 244.29 58.02 242.65 56.82C241.05 55.62 239.71 54.1 238.63 52.26C237.59 50.38 237.07 48.1 237.07 45.42C237.07 41.98 238.19 39.16 240.43 36.96C242.67 34.72 245.55 33.06 249.07 31.98C252.63 30.86 256.39 30.3 260.35 30.3ZM284.661 31.74H292.581V11.52H313.581V31.74H324.021V49.08H313.581V58.68C313.581 60.4 313.801 61.88 314.241 63.12C314.721 64.32 315.721 64.92 317.241 64.92C318.161 64.92 318.981 64.72 319.701 64.32C320.421 63.88 320.861 63.58 321.021 63.42L328.101 78.42C327.781 78.66 326.801 79.12 325.161 79.8C323.561 80.44 321.521 81.04 319.041 81.6C316.601 82.16 313.881 82.44 310.881 82.44C305.561 82.44 301.181 80.98 297.741 78.06C294.301 75.1 292.581 70.56 292.581 64.44V49.08H284.661V31.74ZM353.118 81H331.878V31.74H353.118V39H352.818C353.218 38.12 354.018 37 355.218 35.64C356.458 34.28 358.178 33.06 360.378 31.98C362.618 30.86 365.398 30.3 368.718 30.3C370.958 30.3 373.078 30.66 375.078 31.38C377.078 32.1 378.538 32.8 379.458 33.48L371.298 50.7C370.778 49.94 369.798 49.18 368.358 48.42C366.918 47.62 365.138 47.22 363.018 47.22C360.618 47.22 358.678 47.76 357.198 48.84C355.758 49.88 354.718 51.18 354.078 52.74C353.438 54.3 353.118 55.8 353.118 57.24V81ZM408.239 82.44C402.719 82.44 397.819 81.34 393.539 79.14C389.259 76.94 385.899 73.9 383.459 70.02C381.019 66.1 379.799 61.6 379.799 56.52C379.799 51.44 381.019 46.94 383.459 43.02C385.899 39.06 389.259 35.96 393.539 33.72C397.819 31.44 402.719 30.3 408.239 30.3C413.719 30.3 418.559 31.44 422.759 33.72C426.999 35.96 430.299 39.06 432.659 43.02C435.059 46.94 436.259 51.44 436.259 56.52C436.259 61.6 435.059 66.1 432.659 70.02C430.299 73.9 426.999 76.94 422.759 79.14C418.559 81.34 413.719 82.44 408.239 82.44ZM408.239 65.1C409.879 65.1 411.299 64.76 412.499 64.08C413.699 63.36 414.619 62.34 415.259 61.02C415.899 59.7 416.219 58.16 416.219 56.4C416.219 54.68 415.899 53.16 415.259 51.84C414.619 50.52 413.699 49.5 412.499 48.78C411.299 48.02 409.879 47.64 408.239 47.64C406.559 47.64 405.119 48.02 403.919 48.78C402.719 49.5 401.779 50.52 401.099 51.84C400.419 53.16 400.079 54.68 400.079 56.4C400.079 58.16 400.419 59.7 401.099 61.02C401.779 62.34 402.719 63.36 403.919 64.08C405.119 64.76 406.559 65.1 408.239 65.1Z" fill="white"/>
</svg>
